MutatorSansInstance_600-700.ufo
<glyph name="comma" format="2">
  <advance width="277"/>
  <unicode hex="002C"/>
  <outline>
    <contour>
      <point x="206" y="0" type="line"/>
      <point x="206" y="256" type="line"/>
      <point x="72" y="256" type="line"/>
      <point x="72" y="0" type="line"/>
      <point x="132" y="-13" type="line"/>
      <point x="123" y="12" type="line"/>
      <point x="101" y="-123" type="line"/>
      <point x="149" y="-125" type="line"/>
    </contour>
  </outline>
</glyph>
<glyph name="period" format="2">
  <advance width="277"/>
  <unicode hex="002E"/>
  <outline>
    <contour>
      <point x="71" y="0" type="line"/>
      <point x="205" y="0" type="line"/>
      <point x="205" y="256" type="line"/>
      <point x="71" y="256" type="line"/>
    </contour>
  </outline>
</glyph>
<glyph name="A" format="2">
  <advance width="1059"/>
  <unicode hex="0041"/>
  <outline>
    <contour>
      <point x="29" y="0" type="line"/>
      <point x="229" y="0" type="line"/>
      <point x="526" y="760" type="line"/>
      <point x="355" y="760" type="line"/>
    </contour>
    <contour>
      <point x="188" y="154" type="line"/>
      <point x="806" y="154" type="line"/>
      <point x="806" y="297" type="line"/>
      <point x="188" y="297" type="line"/>
    </contour>
    <contour>
      <point x="753" y="0" type="line"/>
      <point x="1032" y="0" type="line"/>
      <point x="706" y="760" type="line"/>
      <point x="442" y="760" type="line"/>
    </contour>
    <contour>
      <point x="391" y="589" type="line"/>
      <point x="639" y="589" type="line"/>
      <point x="639" y="760" type="line"/>
      <point x="391" y="760" type="line"/>
    </contour>
  </outline>
</glyph>
<glyph name="B" format="2">
  <advance width="1055"/>
  <unicode hex="0042"/>
  <outline>
    <contour>
      <point x="71" y="0" type="line"/>
      <point x="320" y="0" type="line"/>
      <point x="320" y="760" type="line"/>
      <point x="71" y="760" type="line"/>
    </contour>
    <contour>
      <point x="288" y="337" type="line"/>
      <point x="662" y="337" type="line" smooth="yes"/>
      <point x="731" y="337"/>
      <point x="770" y="307"/>
      <point x="770" y="246" type="curve" smooth="yes"/>
      <point x="770" y="187"/>
      <point x="731" y="157"/>
      <point x="661" y="157" type="curve" smooth="yes"/>
      <point x="288" y="157" type="line"/>
      <point x="288" y="0" type="line"/>
      <point x="739" y="0" type="line" smooth="yes"/>
      <point x="955" y="0"/>
      <point x="1018" y="89"/>
      <point x="1018" y="211" type="curve" smooth="yes"/>
      <point x="1018" y="323"/>
      <point x="957" y="389"/>
      <point x="851" y="405" type="curve"/>
      <point x="834" y="365" type="line"/>
      <point x="917" y="383"/>
      <point x="984" y="442"/>
      <point x="984" y="545" type="curve" smooth="yes"/>
      <point x="984" y="674"/>
      <point x="912" y="760"/>
      <point x="694" y="760" type="curve" smooth="yes"/>
      <point x="288" y="760" type="line"/>
      <point x="288" y="610" type="line"/>
      <point x="627" y="610" type="line" smooth="yes"/>
      <point x="701" y="610"/>
      <point x="738" y="580"/>
      <point x="738" y="523" type="curve" smooth="yes"/>
      <point x="738" y="458"/>
      <point x="699" y="433"/>
      <point x="627" y="433" type="curve" smooth="yes"/>
      <point x="288" y="433" type="line"/>
    </contour>
  </outline>
</glyph>
<glyph name="C" format="2">
  <advance width="1150"/>
  <unicode hex="0043"/>
  <outline>
    <contour>
      <point x="853" y="329" type="line"/>
      <point x="833" y="210"/>
      <point x="744" y="163"/>
      <point x="608" y="163" type="curve" smooth="yes"/>
      <point x="552" y="163" type="line" smooth="yes"/>
      <point x="398" y="163"/>
      <point x="304" y="226"/>
      <point x="304" y="383" type="curve" smooth="yes"/>
      <point x="304" y="536"/>
      <point x="398" y="597"/>
      <point x="552" y="597" type="curve" smooth="yes"/>
      <point x="608" y="597" type="line" smooth="yes"/>
      <point x="743" y="597"/>
      <point x="832" y="552"/>
      <point x="853" y="438" type="curve"/>
      <point x="1100" y="464" type="line"/>
      <point x="1065" y="673"/>
      <point x="891" y="770"/>
      <point x="631" y="770" type="curve" smooth="yes"/>
      <point x="527" y="770" type="line" smooth="yes"/>
      <point x="233" y="770"/>
      <point x="49" y="648"/>
      <point x="49" y="383" type="curve" smooth="yes"/>
      <point x="49" y="115"/>
      <point x="233" y="-10"/>
      <point x="527" y="-10" type="curve" smooth="yes"/>
      <point x="631" y="-10" type="line" smooth="yes"/>
      <point x="892" y="-10"/>
      <point x="1067" y="91"/>
      <point x="1101" y="304" type="curve"/>
    </contour>
  </outline>
</glyph>
<glyph name="D" format="2">
  <advance width="1041"/>
  <unicode hex="0044"/>
  <outline>
    <contour>
      <point x="71" y="0" type="line"/>
      <point x="316" y="0" type="line"/>
      <point x="316" y="760" type="line"/>
      <point x="71" y="760" type="line"/>
    </contour>
    <contour>
      <point x="277" y="593" type="line"/>
      <point x="484" y="593" type="line" smooth="yes"/>
      <point x="640" y="593"/>
      <point x="737" y="536"/>
      <point x="737" y="383" type="curve" smooth="yes"/>
      <point x="737" y="226"/>
      <point x="640" y="167"/>
      <point x="484" y="167" type="curve" smooth="yes"/>
      <point x="276" y="167" type="line"/>
      <point x="276" y="0" type="line"/>
      <point x="508" y="0" type="line" smooth="yes"/>
      <point x="804" y="0"/>
      <point x="992" y="116"/>
      <point x="992" y="383" type="curve" smooth="yes"/>
      <point x="992" y="647"/>
      <point x="804" y="760"/>
      <point x="508" y="760" type="curve" smooth="yes"/>
      <point x="277" y="760" type="line"/>
    </contour>
  </outline>
</glyph>
<glyph name="E" format="2">
  <advance width="970"/>
  <unicode hex="0045"/>
  <anchor x="474" y="803" name="top"/>
  <outline>
    <contour>
      <point x="73" y="0" type="line"/>
      <point x="318" y="0" type="line"/>
      <point x="318" y="760" type="line"/>
      <point x="73" y="760" type="line"/>
    </contour>
    <contour>
      <point x="135" y="584" type="line"/>
      <point x="901" y="584" type="line"/>
      <point x="901" y="760" type="line"/>
      <point x="135" y="760" type="line"/>
    </contour>
    <contour>
      <point x="135" y="0" type="line"/>
      <point x="901" y="0" type="line"/>
      <point x="901" y="176" type="line"/>
      <point x="135" y="176" type="line"/>
    </contour>
    <contour>
      <point x="135" y="323" type="line"/>
      <point x="769" y="323" type="line"/>
      <point x="769" y="439" type="line"/>
      <point x="135" y="439" type="line"/>
    </contour>
  </outline>
</glyph>
<glyph name="F" format="2">
  <advance width="979"/>
  <unicode hex="0046"/>
  <outline>
    <contour>
      <point x="71" y="0" type="line"/>
      <point x="321" y="0" type="line"/>
      <point x="321" y="760" type="line"/>
      <point x="71" y="760" type="line"/>
    </contour>
    <contour>
      <point x="135" y="587" type="line"/>
      <point x="908" y="587" type="line"/>
      <point x="908" y="760" type="line"/>
      <point x="135" y="760" type="line"/>
    </contour>
    <contour>
      <point x="135" y="268" type="line"/>
      <point x="849" y="268" type="line"/>
      <point x="849" y="417" type="line"/>
      <point x="135" y="417" type="line"/>
    </contour>
  </outline>
</glyph>
<glyph name="G" format="2">
  <advance width="1187"/>
  <unicode hex="0047"/>
  <outline>
    <contour>
      <point x="506" y="307" type="line"/>
      <point x="880" y="307" type="line"/>
      <point x="880" y="216" type="line"/>
      <point x="988" y="0" type="line"/>
      <point x="1119" y="0" type="line"/>
      <point x="1119" y="383" type="line"/>
      <point x="506" y="383" type="line"/>
    </contour>
    <contour>
      <point x="871" y="336" type="line"/>
      <point x="851" y="214"/>
      <point x="761" y="163"/>
      <point x="622" y="163" type="curve" smooth="yes"/>
      <point x="552" y="163" type="line" smooth="yes"/>
      <point x="398" y="163"/>
      <point x="304" y="226"/>
      <point x="304" y="383" type="curve" smooth="yes"/>
      <point x="304" y="536"/>
      <point x="400" y="597"/>
      <point x="555" y="597" type="curve" smooth="yes"/>
      <point x="626" y="597" type="line" smooth="yes"/>
      <point x="762" y="597"/>
      <point x="850" y="552"/>
      <point x="870" y="438" type="curve"/>
      <point x="1112" y="464" type="line"/>
      <point x="1077" y="673"/>
      <point x="905" y="770"/>
      <point x="646" y="770" type="curve" smooth="yes"/>
      <point x="528" y="770" type="line" smooth="yes"/>
      <point x="234" y="770"/>
      <point x="49" y="648"/>
      <point x="49" y="383" type="curve" smooth="yes"/>
      <point x="49" y="115"/>
      <point x="233" y="-10"/>
      <point x="527" y="-10" type="curve" smooth="yes"/>
      <point x="570" y="-10" type="line" smooth="yes"/>
      <point x="830" y="-10"/>
      <point x="999" y="95"/>
      <point x="1032" y="311" type="curve"/>
    </contour>
  </outline>
</glyph>
<glyph name="H" format="2">
  <advance width="1081"/>
  <unicode hex="0048"/>
  <outline>
    <contour>
      <point x="71" y="0" type="line"/>
      <point x="321" y="0" type="line"/>
      <point x="321" y="760" type="line"/>
      <point x="71" y="760" type="line"/>
    </contour>
    <contour>
      <point x="171" y="294" type="line"/>
      <point x="911" y="294" type="line"/>
      <point x="911" y="464" type="line"/>
      <point x="171" y="464" type="line"/>
    </contour>
    <contour>
      <point x="759" y="0" type="line"/>
      <point x="1009" y="0" type="line"/>
      <point x="1009" y="760" type="line"/>
      <point x="759" y="760" type="line"/>
    </contour>
  </outline>
</glyph>
<glyph name="I" format="2">
  <advance width="828"/>
  <unicode hex="0049"/>
  <outline>
    <contour>
      <point x="290" y="0" type="line"/>
      <point x="540" y="0" type="line"/>
      <point x="540" y="760" type="line"/>
      <point x="290" y="760" type="line"/>
    </contour>
    <contour>
      <point x="71" y="582" type="line"/>
      <point x="757" y="582" type="line"/>
      <point x="757" y="760" type="line"/>
      <point x="71" y="760" type="line"/>
    </contour>
    <contour>
      <point x="71" y="0" type="line"/>
      <point x="757" y="0" type="line"/>
      <point x="757" y="178" type="line"/>
      <point x="71" y="178" type="line"/>
    </contour>
  </outline>
</glyph>
<glyph name="J" format="2">
  <advance width="783"/>
  <unicode hex="004A"/>
  <outline>
    <contour>
      <point x="230" y="-10" type="curve" smooth="yes"/>
      <point x="527" y="-10"/>
      <point x="712" y="111"/>
      <point x="712" y="369" type="curve" smooth="yes"/>
      <point x="712" y="760" type="line"/>
      <point x="457" y="760" type="line"/>
      <point x="457" y="393" type="line" smooth="yes"/>
      <point x="457" y="241"/>
      <point x="368" y="179"/>
      <point x="224" y="179" type="curve" smooth="yes"/>
      <point x="190" y="179"/>
      <point x="147" y="182"/>
      <point x="104" y="190" type="curve"/>
      <point x="71" y="5" type="line"/>
      <point x="120" y="-5"/>
      <point x="172" y="-10"/>
    </contour>
  </outline>
</glyph>
<glyph name="K" format="2">
  <advance width="1037"/>
  <unicode hex="004B"/>
  <outline>
    <contour>
      <point x="71" y="0" type="line"/>
      <point x="321" y="0" type="line"/>
      <point x="321" y="760" type="line"/>
      <point x="71" y="760" type="line"/>
    </contour>
    <contour>
      <point x="241" y="310" type="line"/>
      <point x="351" y="310" type="line"/>
      <point x="682" y="0" type="line"/>
      <point x="1002" y="0" type="line"/>
      <point x="553" y="455" type="line"/>
      <point x="358" y="407" type="line"/>
      <point x="241" y="407" type="line"/>
    </contour>
    <contour>
      <point x="331" y="386" type="line"/>
      <point x="479" y="316" type="line"/>
      <point x="993" y="760" type="line"/>
      <point x="707" y="760" type="line"/>
    </contour>
  </outline>
</glyph>
<glyph name="L" format="2">
  <advance width="864"/>
  <unicode hex="004C"/>
  <outline>
    <contour>
      <point x="71" y="0" type="line"/>
      <point x="321" y="0" type="line"/>
      <point x="321" y="760" type="line"/>
      <point x="71" y="760" type="line"/>
    </contour>
    <contour>
      <point x="135" y="0" type="line"/>
      <point x="838" y="0" type="line"/>
      <point x="838" y="177" type="line"/>
      <point x="135" y="177" type="line"/>
    </contour>
  </outline>
</glyph>
<glyph name="M" format="2">
  <advance width="1110"/>
  <unicode hex="004D"/>
  <outline>
    <contour>
      <point x="71" y="0" type="line"/>
      <point x="267" y="0" type="line"/>
      <point x="267" y="760" type="line"/>
      <point x="71" y="760" type="line"/>
    </contour>
    <contour>
      <point x="1039" y="0" type="line"/>
      <point x="1039" y="760" type="line"/>
      <point x="844" y="760" type="line"/>
      <point x="844" y="0" type="line"/>
    </contour>
    <contour>
      <point x="925" y="511" type="line"/>
      <point x="844" y="760" type="line"/>
      <point x="534" y="443" type="line"/>
      <point x="576" y="443" type="line"/>
      <point x="267" y="760" type="line"/>
      <point x="186" y="511" type="line"/>
      <point x="514" y="181" type="line"/>
      <point x="597" y="181" type="line"/>
    </contour>
  </outline>
</glyph>
<glyph name="N" format="2">
  <advance width="1081"/>
  <unicode hex="004E"/>
  <outline>
    <contour>
      <point x="71" y="0" type="line"/>
      <point x="266" y="0" type="line"/>
      <point x="266" y="760" type="line"/>
      <point x="71" y="760" type="line"/>
    </contour>
    <contour>
      <point x="178" y="548" type="line"/>
      <point x="815" y="0" type="line"/>
      <point x="903" y="213" type="line"/>
      <point x="266" y="760" type="line"/>
    </contour>
    <contour>
      <point x="815" y="0" type="line"/>
      <point x="1010" y="0" type="line"/>
      <point x="1010" y="760" type="line"/>
      <point x="815" y="760" type="line"/>
    </contour>
  </outline>
</glyph>
<glyph name="O" format="2">
  <advance width="1162"/>
  <unicode hex="004F"/>
  <outline>
    <contour>
      <point x="527" y="-10" type="curve" smooth="yes"/>
      <point x="634" y="-10" type="line" smooth="yes"/>
      <point x="928" y="-10"/>
      <point x="1113" y="115"/>
      <point x="1113" y="383" type="curve" smooth="yes"/>
      <point x="1113" y="648"/>
      <point x="928" y="770"/>
      <point x="634" y="770" type="curve" smooth="yes"/>
      <point x="527" y="770" type="line" smooth="yes"/>
      <point x="233" y="770"/>
      <point x="49" y="648"/>
      <point x="49" y="383" type="curve" smooth="yes"/>
      <point x="49" y="115"/>
      <point x="233" y="-10"/>
    </contour>
    <contour>
      <point x="552" y="163" type="line" smooth="yes"/>
      <point x="398" y="163"/>
      <point x="304" y="226"/>
      <point x="304" y="383" type="curve" smooth="yes"/>
      <point x="304" y="536"/>
      <point x="398" y="597"/>
      <point x="552" y="597" type="curve" smooth="yes"/>
      <point x="611" y="597" type="line" smooth="yes"/>
      <point x="764" y="597"/>
      <point x="858" y="536"/>
      <point x="858" y="383" type="curve" smooth="yes"/>
      <point x="858" y="226"/>
      <point x="764" y="163"/>
      <point x="611" y="163" type="curve" smooth="yes"/>
    </contour>
  </outline>
</glyph>
<glyph name="P" format="2">
  <advance width="995"/>
  <unicode hex="0050"/>
  <outline>
    <contour>
      <point x="71" y="0" type="line"/>
      <point x="321" y="0" type="line"/>
      <point x="321" y="760" type="line"/>
      <point x="71" y="760" type="line"/>
    </contour>
    <contour>
      <point x="229" y="578" type="line"/>
      <point x="564" y="578" type="line" smooth="yes"/>
      <point x="695" y="578"/>
      <point x="740" y="536"/>
      <point x="740" y="452" type="curve" smooth="yes"/>
      <point x="740" y="363"/>
      <point x="695" y="324"/>
      <point x="564" y="324" type="curve" smooth="yes"/>
      <point x="229" y="324" type="line"/>
      <point x="229" y="141" type="line"/>
      <point x="550" y="141" type="line" smooth="yes"/>
      <point x="874" y="141"/>
      <point x="968" y="256"/>
      <point x="968" y="452" type="curve" smooth="yes"/>
      <point x="968" y="646"/>
      <point x="874" y="760"/>
      <point x="551" y="760" type="curve" smooth="yes"/>
      <point x="229" y="760" type="line"/>
    </contour>
  </outline>
</glyph>
<glyph name="Q" format="2">
  <advance width="1162"/>
  <unicode hex="0051"/>
  <outline>
    <contour>
      <point x="547" y="-130" type="line"/>
      <point x="797" y="-130" type="line"/>
      <point x="678" y="107" type="line"/>
      <point x="438" y="100" type="line"/>
    </contour>
    <component base="O"/>
  </outline>
</glyph>
<glyph name="R" format="2">
  <advance width="1015"/>
  <unicode hex="0052"/>
  <outline>
    <contour>
      <point x="698" y="0" type="line"/>
      <point x="961" y="0" type="line"/>
      <point x="885" y="116" type="line" smooth="yes"/>
      <point x="837" y="179"/>
      <point x="792" y="219"/>
      <point x="725" y="218" type="curve"/>
      <point x="560" y="218" type="line"/>
    </contour>
    <contour>
      <point x="71" y="0" type="line"/>
      <point x="321" y="0" type="line"/>
      <point x="321" y="760" type="line"/>
      <point x="71" y="760" type="line"/>
    </contour>
    <contour>
      <point x="229" y="578" type="line"/>
      <point x="568" y="578" type="line" smooth="yes"/>
      <point x="697" y="578"/>
      <point x="741" y="536"/>
      <point x="741" y="452" type="curve" smooth="yes"/>
      <point x="741" y="363"/>
      <point x="697" y="324"/>
      <point x="568" y="324" type="curve" smooth="yes"/>
      <point x="229" y="324" type="line"/>
      <point x="229" y="177" type="line"/>
      <point x="553" y="177" type="line" smooth="yes"/>
      <point x="874" y="177"/>
      <point x="970" y="286"/>
      <point x="970" y="470" type="curve" smooth="yes"/>
      <point x="970" y="652"/>
      <point x="872" y="760"/>
      <point x="552" y="760" type="curve" smooth="yes"/>
      <point x="229" y="760" type="line"/>
    </contour>
  </outline>
</glyph>
<glyph name="S" format="2">
  <advance width="1021"/>
  <unicode hex="0053"/>
  <outline>
    <contour>
      <point x="969" y="224" type="curve" smooth="yes"/>
      <point x="969" y="395"/>
      <point x="868" y="450"/>
      <point x="606" y="466" type="curve" smooth="yes"/>
      <point x="456" y="475" type="line" smooth="yes"/>
      <point x="320" y="485"/>
      <point x="272" y="500"/>
      <point x="272" y="543" type="curve" smooth="yes"/>
      <point x="272" y="584"/>
      <point x="322" y="609"/>
      <point x="453" y="609" type="curve" smooth="yes"/>
      <point x="558" y="609" type="line" smooth="yes"/>
      <point x="700" y="609"/>
      <point x="819" y="591"/>
      <point x="909" y="567" type="curve"/>
      <point x="938" y="719" type="line"/>
      <point x="847" y="746"/>
      <point x="701" y="770"/>
      <point x="587" y="770" type="curve" smooth="yes"/>
      <point x="515" y="770" type="line" smooth="yes"/>
      <point x="197" y="770"/>
      <point x="63" y="690"/>
      <point x="63" y="528" type="curve" smooth="yes"/>
      <point x="63" y="374"/>
      <point x="178" y="314"/>
      <point x="426" y="298" type="curve" smooth="yes"/>
      <point x="570" y="289" type="line" smooth="yes"/>
      <point x="707" y="277"/>
      <point x="754" y="267"/>
      <point x="754" y="220" type="curve" smooth="yes"/>
      <point x="754" y="176"/>
      <point x="702" y="152"/>
      <point x="554" y="152" type="curve" smooth="yes"/>
      <point x="454" y="152" type="line" smooth="yes"/>
      <point x="308" y="152"/>
      <point x="181" y="169"/>
      <point x="81" y="196" type="curve"/>
      <point x="53" y="41" type="line"/>
      <point x="156" y="13"/>
      <point x="311" y="-9"/>
      <point x="426" y="-9" type="curve" smooth="yes"/>
      <point x="505" y="-9" type="line" smooth="yes"/>
      <point x="854" y="-9"/>
      <point x="969" y="84"/>
    </contour>
  </outline>
</glyph>
<glyph name="T" format="2">
  <advance width="1013"/>
  <unicode hex="0054"/>
  <outline>
    <contour>
      <point x="381" y="0" type="line"/>
      <point x="631" y="0" type="line"/>
      <point x="631" y="760" type="line"/>
      <point x="381" y="760" type="line"/>
    </contour>
    <contour>
      <point x="27" y="570" type="line"/>
      <point x="986" y="570" type="line"/>
      <point x="986" y="760" type="line"/>
      <point x="27" y="760" type="line"/>
    </contour>
  </outline>
</glyph>
<glyph name="U" format="2">
  <advance width="1080"/>
  <unicode hex="0055"/>
  <outline>
    <contour>
      <point x="539" y="-10" type="curve" smooth="yes"/>
      <point x="826" y="-10"/>
      <point x="996" y="110"/>
      <point x="996" y="364" type="curve" smooth="yes"/>
      <point x="996" y="760" type="line"/>
      <point x="741" y="760" type="line"/>
      <point x="741" y="355" type="line" smooth="yes"/>
      <point x="741" y="227"/>
      <point x="664" y="175"/>
      <point x="540" y="175" type="curve" smooth="yes"/>
      <point x="416" y="175"/>
      <point x="339" y="227"/>
      <point x="339" y="355" type="curve" smooth="yes"/>
      <point x="339" y="760" type="line"/>
      <point x="84" y="760" type="line"/>
      <point x="84" y="364" type="line" smooth="yes"/>
      <point x="84" y="110"/>
      <point x="252" y="-10"/>
    </contour>
  </outline>
</glyph>
<glyph name="V" format="2">
  <advance width="1063"/>
  <unicode hex="0056"/>
  <outline>
    <contour>
      <point x="1039" y="760" type="line"/>
      <point x="838" y="760" type="line"/>
      <point x="528" y="0" type="line"/>
      <point x="702" y="0" type="line"/>
    </contour>
    <contour>
      <point x="303" y="760" type="line"/>
      <point x="24" y="760" type="line"/>
      <point x="359" y="0" type="line"/>
      <point x="624" y="0" type="line"/>
    </contour>
    <contour>
      <point x="672" y="171" type="line"/>
      <point x="421" y="171" type="line"/>
      <point x="421" y="0" type="line"/>
      <point x="672" y="0" type="line"/>
    </contour>
  </outline>
</glyph>
<glyph name="W" format="2">
  <advance width="1180"/>
  <unicode hex="0057"/>
  <outline>
    <contour>
      <point x="1155" y="760" type="line"/>
      <point x="933" y="760" type="line"/>
      <point x="800" y="187" type="line"/>
      <point x="821" y="187" type="line"/>
      <point x="684" y="760" type="line"/>
      <point x="520" y="760" type="line"/>
      <point x="390" y="184" type="line"/>
      <point x="414" y="184" type="line"/>
      <point x="275" y="760" type="line"/>
      <point x="24" y="760" type="line"/>
      <point x="214" y="0" type="line"/>
      <point x="462" y="0" type="line"/>
      <point x="592" y="531" type="line"/>
      <point x="552" y="531" type="line"/>
      <point x="699" y="0" type="line"/>
      <point x="970" y="0" type="line"/>
    </contour>
  </outline>
</glyph>
<glyph name="X" format="2">
  <advance width="1006"/>
  <unicode hex="0058"/>
  <outline>
    <contour>
      <point x="686" y="0" type="line"/>
      <point x="983" y="0" type="line"/>
      <point x="601" y="433" type="line"/>
      <point x="324" y="760" type="line"/>
      <point x="27" y="760" type="line"/>
      <point x="394" y="359" type="line"/>
    </contour>
    <contour>
      <point x="24" y="-1" type="line"/>
      <point x="273" y="0" type="line"/>
      <point x="508" y="329" type="line"/>
      <point x="608" y="335" type="line"/>
      <point x="978" y="760" type="line"/>
      <point x="729" y="760" type="line"/>
      <point x="487" y="446" type="line"/>
      <point x="384" y="436" type="line"/>
    </contour>
  </outline>
</glyph>
<glyph name="Y" format="2">
  <advance width="969"/>
  <unicode hex="0059"/>
  <outline>
    <contour>
      <point x="948" y="760" type="line"/>
      <point x="741" y="760" type="line"/>
      <point x="447" y="205" type="line"/>
      <point x="607" y="197" type="line"/>
    </contour>
    <contour>
      <point x="284" y="760" type="line"/>
      <point x="21" y="760" type="line"/>
      <point x="361" y="197" type="line"/>
      <point x="588" y="205" type="line"/>
    </contour>
    <contour>
      <point x="610" y="298" type="line"/>
      <point x="360" y="298" type="line"/>
      <point x="360" y="0" type="line"/>
      <point x="610" y="0" type="line"/>
    </contour>
  </outline>
</glyph>
<glyph name="Z" format="2">
  <advance width="1042"/>
  <unicode hex="005A"/>
  <outline>
    <contour>
      <point x="71" y="177" type="line"/>
      <point x="367" y="125" type="line"/>
      <point x="970" y="583" type="line"/>
      <point x="675" y="635" type="line"/>
    </contour>
    <contour>
      <point x="71" y="583" type="line"/>
      <point x="970" y="583" type="line"/>
      <point x="970" y="760" type="line"/>
      <point x="71" y="760" type="line"/>
    </contour>
    <contour>
      <point x="71" y="0" type="line"/>
      <point x="970" y="0" type="line"/>
      <point x="970" y="177" type="line"/>
      <point x="71" y="177" type="line"/>
    </contour>
  </outline>
</glyph>
